<?xml version="1.0" encoding="utf-8"?>
<svg version="1.1" id="Layer_1" xmlns="http://www.w3.org/2000/svg" xmlns:xlink="http://www.w3.org/1999/xlink" x="0px" y="0px"
	 viewBox="0 0 620 600" style="enable-background:new 0 0 620 600;" xml:space="preserve">
<path d="M180.04,479.74c0,7.17,0,13.44,0,20.07c26.64,0,52.9,0,79.57,0c0,26.75,0,53.14,0,79.85c-12.96,0-26.01,0-39.44,0
	c0-6.36,0-12.64,0-19.46c-13.42,0-26.47,0-40.08,0c0-6.93,0-13.32,0-20.08c-6.81,0-13.08,0-19.9,0c0-6.75,0-13.14,0-20.08
	c-6.93,0-13.33,0-20.08,0c0-6.81,0-13.08,0-19.9c-6.75,0-13.14,0-19.9,0c0-6.81,0-13.08,0-19.9c-6.74,0-13.14,0-20.08,0
	c0-6.93,0-13.32,0-20.08c-6.81,0-13.08,0-19.9,0c0-6.74,0-13.14,0-20.08c-6.93,0-13.33,0-20.08,0c0-13.48,0-26.42,0-39.9
	c-6.75,0-13.14,0-19.83,0c0-60.27,0-119.98,0-180.07c6.43,0,12.71,0,19.53,0c0-13.42,0-26.48,0-39.9c6.81,0,13.08,0,19.9,0
	c0-13.41,0-26.47,0-40.08c6.92,0,13.32,0,20.08,0c0-6.81,0-13.08,0-19.9c6.74,0,13.14,0,20.08,0c0-6.93,0-13.32,0-20.08
	c6.81,0,13.08,0,19.9,0c0-6.74,0-13.14,0-20.08c6.93,0,13.32,0,20.08,0c0-6.81,0-13.08,0-19.9c6.75,0,13.14,0,19.9,0
	c0-6.81,0-13.08,0-19.9c13.42,0,26.47,0,40.08,0c0-6.93,0-13.32,0-19.99c60.15,0,119.74,0,179.89,0c0,6.25,0,12.65,0,19.59
	c13.6,0,26.65,0,40.08,0c0,6.81,0,13.08,0,19.9c6.74,0,13.14,0,20.08,0c0,6.93,0,13.32,0,20.08c6.81,0,13.08,0,19.9,0
	c0,6.75,0,13.14,0,20.08c6.93,0,13.32,0,20.08,0c0,6.81,0,13.08,0,19.9c6.75,0,13.14,0,19.9,0c0,6.81,0,13.08,0,19.9
	c6.74,0,13.14,0,20.08,0c0,13.6,0,26.65,0,40.08c6.81,0,13.08,0,19.9,0c0,13.42,0,26.47,0,40.08c6.93,0,13.32,0,19.97,0
	c0,60.15,0,119.74,0,179.89c-6.32,0-12.72,0-19.66,0c0,13.6,0,26.65,0,40.08c-6.81,0-13.08,0-19.9,0c0,6.75,0,13.14,0,20.08
	c-6.93,0-13.33,0-20.08,0c0,6.81,0,13.08,0,19.9c-6.75,0-13.14,0-19.9,0c0,6.81,0,13.08,0,19.9c-6.74,0-13.14,0-20.08,0
	c0,6.93,0,13.32,0,20.08c-6.81,0-13.08,0-19.9,0c0,6.74,0,13.14,0,20.08c-6.93,0-13.32,0-20.08,0c0,6.81,0,13.08,0,19.9
	c-6.75,0-13.14,0-20.08,0c0,6.93,0,13.33,0,19.94c-13.48,0-26.42,0-39.9,0c0-39.74,0-79.46,0-119.55c-6.81,0-13.08,0-19.9,0
	c0-6.74,0-13.14,0-20.08c-6.93,0-13.32,0-19.98,0c0-6.81,0-13.08,0-19.9c26.3,0,52.68,0,79.62,0c0-6.93,0-13.32,0-20.08
	c6.81,0,13.08,0,19.9,0c0-6.74,0-13.14,0-20.08c6.93,0,13.32,0,20.08,0c0-6.81,0-13.08,0-19.9c6.75,0,13.14,0,19.82,0
	c0-40.15,0-79.74,0-119.9c-6.22,0-12.62,0-19.56,0c0-6.92,0-13.32,0-20.08c-6.81,0-13.08,0-19.75,0c0-6.75,0-13.13,0-20.08
	c6.29,0,12.68,0,19.33,0c0-20.15,0-39.75,0-59.73c-19.65,0-39.37,0-59.64,0c0,6.33,0,12.72,0,19.48c-6.81,0-13.08,0-19.9,0
	c0,6.75,0,13.14,0,19.83c-6.93,0-13.32,0-20.08,0c0-6.45,0-12.72,0-19.34c-33.42,0-66.47,0-99.9,0c0,6.3,0,12.57,0,19.24
	c-6.74,0-13.13,0-20.08,0c0-6.26,0-12.66,0-19.42c-6.81,0-13.08,0-19.9,0c0-6.74,0-13.14,0-19.85c-20.27,0-39.98,0-59.96,0
	c0,19.72,0,39.32,0,59.48c6.33,0,12.73,0,19.43,0c0,6.93,0,13.32,0,20.08c-6.43,0-12.7,0-19.52,0c0,6.75,0,13.14,0,19.9
	c-6.81,0-13.08,0-19.76,0c0,40.09,0,79.8,0,120.07c6.24,0,12.64,0,19.4,0c0,6.81,0,13.08,0,19.9c6.74,0,13.14,0,20.08,0
	c0,6.93,0,13.32,0,20.08c6.81,0,13.08,0,19.9,0c0,6.74,0,13.14,0,20.08c26.93,0,53.32,0,79.96,0c0,6.81,0,13.08,0,19.9
	c-6.36,0-12.75,0-19.69,0c0,6.93,0,13.33,0,20.08c-6.81,0-13.08,0-19.9,0c0,6.75,0,13.14,0,19.82c-13.48,0-26.41,0-39.9,0
	c0-6.25,0-12.65,0-19.59c-6.93,0-13.32,0-20.08,0c0-6.81,0-13.08,0-19.9c-6.74,0-13.14,0-20.08,0c0-6.93,0-13.32,0-19.96
	c-13.48,0-26.41,0-39.72,0c0,6.35,0,12.73,0,19.68c6.36,0,12.76,0,19.52,0c0,6.81,0,13.08,0,19.9c6.75,0,13.14,0,19.9,0
	c0,6.81,0,13.08,0,19.9C166.53,479.74,172.92,479.74,180.04,479.74z"/>
</svg>
