<?xml version="1.0" encoding="utf-8"?>
<svg version="1.1" id="Layer_1" xmlns="http://www.w3.org/2000/svg" xmlns:xlink="http://www.w3.org/1999/xlink" x="0px" y="0px"
	 viewBox="0 0 575.36 575.39" style="enable-background:new 0 0 575.36 575.39;" xml:space="preserve">
<style type="text/css">
	.st0{fill:#FEFEFE;}
	.st1{fill:#FE0000;}
	.st2{fill:#808080;}
</style>
<path d="M47.73,383.64c-15.8,0-31.6,0-47.73,0c0-63.82,0-127.61,0-191.94c15.83,0,31.74,0,47.65,0l0.04,0.04
	c0,31.89,0,63.77,0,96.16c16.31,0,32.02,0,47.99,0c0,16.3,0,32.09,0,47.89c-15.88,0-31.76,0-48.07,0c0,16.23,0,32.12,0,48
	L47.73,383.64z"/>
<path d="M527.68,191.7c15.79,0,31.58,0,47.68,0c0,63.98,0,127.76,0,191.95c-15.92,0-31.84,0-47.75,0l0.1,0.1c0-15.9,0-31.81,0-48
	c-16.49,0-32.27,0-48.06,0c0-15.91,0-31.81,0-48.22c16.35,0,32.06,0,48,0c0-32.27,0-64.03,0-95.79L527.68,191.7z"/>
<path d="M191.65,47.7c0-15.81,0-31.61,0-47.7c63.97,0,127.7,0,192.03,0c0,15.85,0,31.77,0,47.7l-0.04,0.04
	c-63.99,0-127.97,0-191.96,0L191.65,47.7z"/>
<path d="M383.6,527.66c0,15.8,0,31.6,0,47.73c-63.86,0-127.66,0-191.88,0c0-15.89,0-31.81,0-47.73l-0.1,0.1
	c64.02,0,128.05,0,192.07,0L383.6,527.66z"/>
<path d="M95.65,95.7c0-15.81,0-31.61,0-48c32.16,0,64.08,0,96,0l0.04,0.04c-0.04,15.97-0.07,31.94-0.11,47.9
	c-31.96,0.03-63.93,0.06-95.89,0.1L95.65,95.7z"/>
<path d="M383.68,47.7c31.8,0,63.6,0,96,0c0,16.15,0,32.07,0,48l-0.04,0.04c-31.89,0-63.77,0-96,0c0-16.43,0-32.22,0-48L383.68,47.7z
	"/>
<path d="M47.65,191.7c0-31.8,0-63.6,0-96c16.15,0,32.08,0,48,0l0.04,0.04c0,31.89,0,63.77,0,96c-16.43,0-32.22,0-48,0L47.65,191.7z"
	/>
<path d="M479.68,95.7c15.81,0,31.61,0,48,0c0,32.16,0,64.08,0,96l-0.04,0.04c-15.9,0-31.81,0-48,0c0-32.46,0-64.23,0-96L479.68,95.7
	z"/>
<path d="M95.72,479.66c-15.79,0-31.57,0-47.99,0c0-32.02,0-64.02,0-96.01c0,0-0.14,0.15-0.14,0.15c16.05-0.05,32.09-0.1,48.14-0.15
	c0.02,15.99,0.04,31.98,0.06,47.97c-0.05,16.05-0.11,32.09-0.16,48.14L95.72,479.66z"/>
<path d="M527.6,383.66c0,31.87,0,63.75,0,96c-16.19,0-32.1,0-48,0l0.1,0.1c-0.02-32.02-0.05-64.05-0.07-96.07
	c16.02,0.02,32.05,0.05,48.07,0.07L527.6,383.66z"/>
<path d="M191.72,527.66c-31.87,0-63.75,0-96,0c0-16.19,0-32.1,0-48c0,0-0.09,0.1-0.09,0.1c16.05-0.05,32.09-0.11,48.14-0.16
	c15.93,0.08,31.86,0.17,47.8,0.25c0.02,15.97,0.04,31.94,0.06,47.91L191.72,527.66z"/>
<path d="M479.6,479.66c0,15.79,0,31.57,0,48c-32.02,0-64.01,0-96,0c0,0,0.1,0.1,0.1,0.1c0-15.91,0-31.82,0-48c32.44,0,64.22,0,96,0
	L479.6,479.66z"/>
<path class="st1" d="M47.68,191.74c15.78,0,31.57,0,48,0c0-32.23,0-64.11,0-96c31.96-0.03,63.93-0.06,95.89-0.1
	c0,0,0.17,0.16,0.17,0.16c0,15.9,0,31.8,0,48.11c-16.42,0-32.14,0-47.78,0c0,16.13,0,31.85,0,47.98c16.02,0,31.74,0,47.86,0
	c0,16.13,0,31.85,0,47.75c16.2,0,31.98,0,47.76,0l0.16,0.16c-0.04,15.96-0.07,31.93-0.11,47.89c-15.9,0-31.81,0-48.21,0
	c0,16.4,0,32.12,0,48.02c-32.29,0-64.06,0-95.84,0l0.08,0.07c0-15.79,0-31.58,0-47.89c-15.96,0-31.67,0-47.99,0
	C47.68,255.51,47.68,223.62,47.68,191.74z"/>
<path class="st0" d="M95.73,383.64c-16.05,0.05-32.09,0.1-48.14,0.15c0-15.88,0-31.77,0-48c16.32,0,32.2,0,48.07,0
	c0,0-0.08-0.07-0.08-0.07c0,16.02,0,32.05,0,48.07L95.73,383.64z"/>
<path class="st1" d="M479.64,95.74c0,31.77,0,63.54,0,96c16.19,0,32.1,0,48,0c0,31.76,0,63.53,0,95.79c-15.94,0-31.65,0-48,0
	c0,16.41,0,32.31,0,48.22c0,0,0.05-0.08,0.05-0.08c-31.89,0-63.77,0-96.16,0c0-16.24,0-31.95,0-47.96c-16.29,0-32.07,0-47.86,0
	c0-15.9,0-31.8,0-47.91c-32.41,0-64.17,0-95.92,0l-0.16-0.16c0-15.9,0-31.8,0-48.11c16.42,0,32.14,0,47.78,0
	c0-16.13,0-31.85,0-47.98c-16.02,0-31.74,0-47.86,0c0-16.13,0-31.85,0-47.75c-16.2,0-31.98,0-47.76,0c0,0-0.17-0.16-0.17-0.16
	c0.04-15.97,0.07-31.94,0.11-47.9c63.99,0,127.97,0,191.96,0c0,15.78,0,31.57,0,48C415.87,95.74,447.76,95.74,479.64,95.74z"/>
<path class="st2" d="M527.7,383.75c-16.02-0.02-32.05-0.05-48.07-0.07l0.07,0.07c0-16.03-0.01-32.05-0.01-48.08
	c0,0-0.05,0.08-0.05,0.08c15.78,0,31.57,0,48.06,0C527.7,351.95,527.7,367.85,527.7,383.75z"/>
<path class="st2" d="M479.7,479.75c-31.78,0-63.56,0-96,0c0,16.18,0,32.09,0,48c-64.02,0-128.05,0-192.07,0
	c-0.02-15.97-0.04-31.94-0.06-47.91c31.89,0,63.78,0,96,0c0-16.46,0-32.23,0-48c15.92,0,31.84,0,48.07,0c0-16.57,0-32.37,0-48.16
	c48.02,0.02,96.05,0.05,144.07,0.07l-0.07-0.07C479.65,415.71,479.68,447.73,479.7,479.75z"/>
<path class="st0" d="M287.56,431.84c0,15.77,0,31.54,0,48c-32.22,0-64.11,0-96,0c-15.93-0.08-31.86-0.17-47.8-0.25
	c0-15.85,0-31.7,0-47.98c-16.51,0-32.25,0-47.98,0c-0.02-15.99-0.04-31.98-0.06-47.97c0,0-0.14,0.15-0.14,0.15
	c48.04-0.04,96.09-0.09,144.13-0.13c0,15.93,0,31.86,0,48.19C255.97,431.84,271.77,431.84,287.56,431.84z"/>
<path class="st2" d="M95.79,431.62c15.73,0,31.47,0,47.98,0c0,16.27,0,32.13,0,47.98c-16.05,0.05-32.09,0.11-48.14,0.16
	C95.68,463.71,95.73,447.66,95.79,431.62z"/>
<path class="st0" d="M191.74,95.8c15.78,0,31.56,0,47.76,0c0,15.9,0,31.62,0,47.75c16.13,0,31.85,0,47.86,0c0,16.13,0,31.84,0,47.98
	c-15.64,0-31.37,0-47.78,0c0,16.31,0,32.21,0,48.11c-15.78,0-31.56,0-47.76,0c0-15.9,0-31.62,0-47.75c-16.13,0-31.85,0-47.86,0
	c0-16.13,0-31.84,0-47.98c15.64,0,31.37,0,47.78,0C191.74,127.6,191.74,111.7,191.74,95.8z"/>
<path d="M239.72,383.66c-48.04,0.04-96.09,0.09-144.13,0.13c0-16.02,0-32.05,0-48.07c31.78,0,63.55,0,95.84,0
	c0-15.9,0-31.61,0-48.02c16.41,0,32.31,0,48.21,0l0.04,0.04c0.04,15.96,0.07,31.92,0.11,47.88c-0.05,16.05-0.11,32.09-0.16,48.14
	L239.72,383.66z"/>
<path d="M239.75,239.8c31.75,0,63.51,0,95.92,0c0,16.11,0,32.01,0,47.91l-0.01,0.01c-14.64,0-29.28-0.03-43.93,0.03
	c-1.72,0.01-3.44,0.54-5.16,0.83c-15.63-0.29-31.26-0.57-46.89-0.86c0,0-0.04-0.04-0.04-0.04
	C239.68,271.73,239.71,255.77,239.75,239.8z"/>
<path d="M479.7,383.75c-48.02-0.02-96.05-0.05-144.07-0.07c0,0,0.07,0.07,0.07,0.07c-0.01-32.01-0.03-64.02-0.04-96.03l0.01-0.01
	c15.78,0,31.57,0,47.86,0c0,16.01,0,31.72,0,47.96c32.39,0,64.28,0,96.16,0C479.69,351.7,479.69,367.73,479.7,383.75z"/>
<path d="M287.56,431.84c-15.79,0-31.59,0-47.84,0c0-16.33,0-32.26,0-48.19c0,0-0.1,0.1-0.1,0.1c32.02,0,64.05,0,96.07,0
	c0,0-0.07-0.07-0.07-0.07c0,15.79,0,31.59,0,48.16C319.4,431.84,303.48,431.84,287.56,431.84z"/>
<path class="st2" d="M335.7,383.75c-32.02,0-64.05,0-96.07,0c0.05-16.05,0.11-32.09,0.16-48.14c15.57,0,31.14,0,46.9,0
	c0-4.21-0.07-7.71,0.01-11.2c0.28-11.27,0.64-22.53,0.89-33.8c0.01-0.67-0.67-1.35-1.03-2.02c1.72-0.29,3.44-0.83,5.16-0.83
	c14.64-0.07,29.28-0.03,43.93-0.03C335.67,319.73,335.68,351.74,335.7,383.75z"/>
<path class="st0" d="M286.57,288.59c0.36,0.68,1.04,1.36,1.03,2.02c-0.25,11.27-0.61,22.53-0.89,33.8
	c-0.09,3.49-0.01,6.99-0.01,11.2c-15.76,0-31.33,0-46.9,0c-0.04-15.96-0.07-31.92-0.11-47.88
	C255.31,288.02,270.94,288.31,286.57,288.59z"/>
</svg>
